<?xml version="1.0" encoding="UTF-8"?>
<svg width="395px" height="370px" viewBox="0 0 395 370" version="1.1" xmlns="http://www.w3.org/2000/svg" xmlns:xlink="http://www.w3.org/1999/xlink">
    <title>299DC06B-1B84-4E8B-9BF4-3C236814A168</title>
    <defs>
        <linearGradient x1="35.9916478%" y1="65.1579724%" x2="82.3873515%" y2="25.3191468%" id="linearGradient-1">
            <stop stop-color="#19034D" stop-opacity="0.91" offset="0%"></stop>
            <stop stop-color="#311573" stop-opacity="0" offset="56%"></stop>
        </linearGradient>
        <linearGradient x1="13.5904232%" y1="104.824386%" x2="57.982328%" y2="11.0764863%" id="linearGradient-2">
            <stop stop-color="#201B59" stop-opacity="0.91" offset="0%"></stop>
            <stop stop-color="#FFCC00" stop-opacity="0" offset="56%"></stop>
        </linearGradient>
        <linearGradient x1="34.1201348%" y1="33.8731086%" x2="63.1802455%" y2="77.0639766%" id="linearGradient-3">
            <stop stop-color="#201B59" stop-opacity="0.91" offset="0%"></stop>
            <stop stop-color="#FFCC00" stop-opacity="0" offset="56%"></stop>
        </linearGradient>
        <linearGradient x1="68.0211154%" y1="-17.0729904%" x2="15.3561932%" y2="104.681546%" id="linearGradient-4">
            <stop stop-color="#201B59" stop-opacity="0.91" offset="27%"></stop>
            <stop stop-color="#FF735F" stop-opacity="0" offset="56%"></stop>
        </linearGradient>
        <linearGradient x1="82.5712392%" y1="119.467358%" x2="24.9171637%" y2="13.5266378%" id="linearGradient-5">
            <stop stop-color="#201B59" stop-opacity="0.91" offset="27%"></stop>
            <stop stop-color="#FF735F" stop-opacity="0" offset="56%"></stop>
        </linearGradient>
        <linearGradient x1="65.5777973%" y1="64.6505462%" x2="23.1545046%" y2="-0.483351967%" id="linearGradient-6">
            <stop stop-color="#FFFFFF" offset="0%"></stop>
            <stop stop-color="#FFFFFF" stop-opacity="0.3" offset="55%"></stop>
        </linearGradient>
    </defs>
    <g id="New" stroke="none" stroke-width="1" fill="none" fill-rule="evenodd">
        <g id="404" transform="translate(-620.000000, -129.000000)">
            <g id="OBJEKTS" transform="translate(621.000000, 130.000000)">
                <path d="M65.6999913,159.63 L140.699991,159.63 C153.402549,159.63 163.699991,169.927451 163.699991,182.63 L163.699991,213.5 L65.6999913,213.5 C52.9974508,213.5 42.6999913,203.202549 42.6999913,190.5 L42.6999913,182.65 C42.6946927,176.546556 45.1155568,170.691277 49.4294689,166.373614 C53.743381,162.05595 59.5965539,159.63 65.6999913,159.63 L65.6999913,159.63 Z" id="Path" stroke="#FFFFFF" stroke-width="2"></path>
                <path d="M266.06,353.72 C293.63,344 320.29,327.38 337.75,303.16 C359.1,273.52 357.27,239.93 361.64,205.31 C363.41,191.24 372.83,183.15 378.44,170.67 C390.27,144.35 386.09,104.74 361.22,86.86 C345.9,75.86 331.1,74.65 322.86,55.5 C318.3,44.91 315.63,33.25 308.55,24.16 C298.3,11 280.89,5.81 264.4,3.21 C245.23,0.21 226.5,0.86 207.26,0.28 C186.76,-0.32 165.97,0.23 146.06,5.67 C119.06,13.06 89.37,32.4 84.65,61.85 C82.65,74.47 85.28,87.94 80.48,99.79 C73.27,117.63 54.05,123.68 39.73,134.21 C24.36,145.52 14.37,163.21 9.98,181.54 C2.51,212.81 7.98,247.54 22.57,275.91 C38.14,306.3 63.43,332.17 94.11,347.38 C118.11,359.29 151.34,362.8 178.44,364.47 C208.05,366.3 238.2,363.55 266.06,353.72 Z" id="Path" fill="#ADDFFF" fill-rule="nonzero"></path>
                <path d="M336.601779,231.61 C336.42,186.93 324.06,144.02 287.71,115.23 C242.85,79.7 180.14,80.16 134.29,113.31 C104.29,134.98 83.29,167.59 71.49,202.66 C59.69,237.73 56.65,275.24 57.91,312.22 L330.91,313.07 L334.33,275.43 C335.64,261 336.65,246.31 336.601779,231.61 Z" id="Path" fill="#69A4C9" fill-rule="nonzero"></path>
                <path d="M80.6999913,154.63 L155.699991,154.63 C168.402549,154.63 178.699991,164.927451 178.699991,177.63 L178.699991,208.5 L80.6999913,208.5 C67.9974508,208.5 57.6999913,198.202549 57.6999913,185.5 L57.6999913,177.65 C57.6946927,171.546556 60.1155568,165.691277 64.4294689,161.373614 C68.743381,157.05595 74.5965539,154.63 80.6999913,154.63 Z" id="Path" stroke="#FFFFFF" opacity="0.75"></path>
                <path d="M142.49,48.3799737 L247.18,48.3799737 C263.997071,48.3799737 277.63,62.0129294 277.63,78.83 L277.63,119.660026 L142.49,119.660026 C134.40723,119.670618 126.651873,116.46719 120.932736,110.755556 C115.213599,105.043922 112,97.2927773 112,89.21 L112,78.83 C112,70.7472227 115.213599,62.996078 120.932736,57.284444 C126.651873,51.5728101 134.40723,48.3693822 142.49,48.3799737 Z" id="Path" stroke="#FFFFFF" opacity="0.75"></path>
                <path d="M104.38,305.08 C104.010325,304.771097 103.623005,304.483945 103.22,304.22 C101.81,303.1 101.52,301.1 101.37,299.3 C99.56,277.3 102.86,255.15 101.82,233.09 C101.57,227.83 97.3,230.41 93.82,231.09 C93.3,231.19 86.47,232.47 86.54,231.7 C85.93,237.96 85.13,244.7 80.98,249.41 C78.11,252.69 73.98,254.56 70.39,257.01 C56.84,266.22 48.92,283.94 46.95,299.93 C46.95,299.58 46.88,299.22 46.85,298.87 C46.5766667,295.683333 46.3633333,292.493333 46.21,289.3 C45.8833333,282.586667 45.79,275.87 45.93,269.15 C46.04,264.15 46.64,258.69 43.63,254.35 C41.08,250.66 38.23,250.35 34.58,250.07 C33.58,248.07 33.77,244.15 33.78,242.38 C33.78,239.53 34.28,236.27 36.36,234.1 C39.78,230.51 45.1,232.7 49.43,231.62 C59.25,229.16 55.75,216.62 55.1,209.41 C54.69,204.96 47.69,204.92 48.1,209.41 C48.42,213.03 49.1,216.8 49.1,220.41 C49.1,222.74 49.1,224.25 46.65,224.97 C45.528326,225.12 44.391674,225.12 43.27,224.97 C38.16,224.97 33.8,226.07 30.52,230.22 C27,234.71 26.42,240.49 27,246 C27.44,250.16 27.62,256 32.71,256.89 C37.43,257.71 38.91,258.65 39.03,263.73 C39.11,267.12 38.86,270.54 38.85,273.94 C38.81,281.62 39.0866667,289.286667 39.68,296.94 C40.01,301.31 39.27,309.28 42.98,312.53 C44.570309,314.024294 46.9286781,314.356628 48.87,313.36 C54.69,313.68 68.46,312.86 69.93,312.86 L87.7,312.86 C90.7,312.86 95.92,313.86 98.77,312.41 C100.31,311.61 103.06,310.16 104.18,308.86 C105.164906,307.819661 105.249625,306.218462 104.38,305.08 L104.38,305.08 Z" id="Path" fill="#3B1C99" fill-rule="nonzero"></path>
                <path d="M102,239.53 C102,237.73 102,235.93 101.86,234.14 C101.86,233.79 101.81,233.44 101.75,233.14 C101.688459,232.768899 101.573958,232.408557 101.41,232.07 C100.12,229.55 95.53,231.73 93.72,232.62 C91.7384396,233.632667 89.8596614,234.834951 88.11,236.21 C86.9784635,236.940074 86.0387863,237.931194 85.37,239.1 C84.78,240.37 85.12,242.41 85.25,243.76 C85.2627689,244.801311 85.5714444,245.817512 86.14,246.69 C86.7596343,247.560786 87.9154525,247.860287 88.88,247.4 C89.0044298,248.499289 89.3191198,249.568558 89.81,250.56 C90.2462386,251.318094 90.9655919,251.871996 91.81,252.1 C92.37,252.26 92.34,252.16 92.54,252.75 C92.54,252.75 92.54,252.75 92.54,252.8 C92.6577941,253.25663 92.8395954,253.6943 93.08,254.1 L93.08,254.18 C93.216161,254.475724 93.4060456,254.743597 93.64,254.97 C93.7786866,255.085507 93.9336978,255.179862 94.1,255.25 L94.1,255.25 C94.4322416,255.458599 94.80923,255.585404 95.2,255.62 C96.2196048,255.783169 97.2433332,255.352738 97.84,254.51 C98.3057268,253.515366 98.4490709,252.400078 98.25,251.32 C99.0586442,251.30862 99.7808521,250.811362 100.08,250.06 C100.364625,249.155782 100.466603,248.203992 100.38,247.26 C100.38,246.19 100.38,245.11 100.27,244.04 C102.44,244.24 102,241 102,239.53 Z" id="Path" fill="#8054F6" fill-rule="nonzero"></path>
                <path d="M78.93,275.33 C82.5767957,277.553466 84.673133,281.630321 84.36,285.89 C83.92,290.21 80.5,293.67 77.36,296.32 C74.22,298.97 70.36,301.66 68.24,305.43 C70.4135775,305.153701 72.5996686,304.986824 74.79,304.93 C76.66,304.87 78.79,305.05 79.93,306.57 C81.07,308.09 80.44,310.37 80.74,312.31 C80.9630803,312.441161 81.2493786,312.380431 81.4,312.17 C81.55,312.68 81.5,312.71 82.02,312.67 C83.7716063,312.402988 85.2732184,311.276779 86.02,309.67 C86.7368488,308.064413 87.1634467,306.344479 87.28,304.59 C88.1059543,298.356215 88.3536757,292.059406 88.02,285.78 C88.0176392,283.784785 87.5448463,281.818241 86.64,280.04 C85,277.18 82.25,275.06 78.93,275.33 Z" id="Path" fill="url(#linearGradient-1)" fill-rule="nonzero"></path>
                <path d="M70.17,217.23 C70.09,216.92 70,216.61 69.91,216.29 C69.91,216.44 70.75,216.74 70.91,216.83 L71.98,217.41 C72.69,217.81 73.4,218.21 74.1,218.62 C74.8,219.03 75.5,219.46 76.19,219.89 C76.5,220.09 76.66,220.26 77.02,220.2 C77.5387593,220.063608 78.0415761,219.872538 78.52,219.63 L80.33,218.91 L83.94,217.48 C86.33,216.54 88.71,215.58 91.06,214.57 C91.97,214.17 94.06,213.65 94.38,212.65 C94.485687,212.28626 94.5362489,211.908731 94.53,211.53 C94.63,209.62 95,206 95,206 C95,206 96.43,207.22 96.65,207.49 C97.18,208.11 97.65,208.74 98.15,209.4 C99.1042462,210.693809 99.9759752,212.046492 100.76,213.45 C102.412612,216.43307 103.817338,219.546878 104.96,222.76 C105.88,225.35 106.34,227.93 104.61,230.26 C103.01,232.43 100.46,233.8 98.11,235.01 C93.34,237.47 88.23,240.22 82.81,240.74 C81.4533623,240.943745 80.0667639,240.76002 78.81,240.21 C77.5983619,239.490731 76.6300516,238.424893 76.03,237.15 C72.69,230.92 72,223.93 70.17,217.23 Z" id="Path" fill="#3B1C99" fill-rule="nonzero"></path>
                <path d="M96.86,231 C95.28,230.48 93.62,230.37 92.03,229.91 C92.14,229.75 92.23,229.57 92.32,229.42 C92.56,229 92.79,228.57 93.01,228.15 C93.0864601,228.014601 93.0969729,227.851718 93.0385524,227.707614 C92.9801319,227.56351 92.8591611,227.45393 92.71,227.41 C92.19,227.21 91.32,227.69 90.82,227.87 C90.0544537,228.127361 89.3172751,228.462442 88.62,228.87 C88.4488643,228.9724 88.3549466,229.166706 88.3810197,229.364426 C88.4070927,229.562146 88.5481694,229.725464 88.74,229.78 L90.74,230.42 C90.0552877,232.110742 89.4709388,233.840415 88.99,235.6 C88.918203,235.876142 89.0838576,236.158203 89.36,236.23 C89.6361424,236.301797 89.918203,236.136142 89.99,235.86 C90.4655705,234.163737 91.0330759,232.494603 91.69,230.86 C93.31,231.34 95.02,231.44 96.64,231.97 C97.21,232.16 97.47,231.2 96.86,231 Z" id="Path" fill="#19034D" fill-rule="nonzero"></path>
                <path d="M83.15,226.8 C82.9442278,226.719675 82.7157722,226.719675 82.51,226.8 C82.3675428,226.784241 82.2283376,226.849976 82.15,226.97 C82.0510627,227.089799 81.9794023,227.229707 81.94,227.38 C81.9058798,227.45732 81.8790956,227.537672 81.86,227.62 C81.8232551,227.767933 81.8605327,227.924499 81.96,228.04 C82.0889434,228.381275 82.4055179,228.61564 82.7695699,228.639335 C83.1336219,228.663031 83.4779055,228.471681 83.65,228.15 C83.7950127,227.910157 83.8227861,227.617292 83.725443,227.354466 C83.6281,227.091639 83.4162583,226.88752 83.15,226.8 Z" id="Path" fill="#19034D" fill-rule="nonzero"></path>
                <path d="M98.15,220.8 C97.9442278,220.719675 97.7157722,220.719675 97.51,220.8 C97.3675428,220.784241 97.2283376,220.849976 97.15,220.97 C97.0510627,221.089799 96.9794023,221.229707 96.94,221.38 C96.9058798,221.45732 96.8790956,221.537672 96.86,221.62 C96.8232551,221.767933 96.8605327,221.924499 96.96,222.04 C97.0889434,222.381275 97.4055179,222.61564 97.7695699,222.639335 C98.1336219,222.663031 98.4779055,222.471681 98.65,222.15 C98.7950127,221.910157 98.8227861,221.617292 98.725443,221.354466 C98.6281,221.091639 98.4162583,220.88752 98.15,220.8 Z" id="Path" fill="#19034D" fill-rule="nonzero"></path>
                <path d="M275.63,126.22 L322.3,126.22 C335.775748,126.22 346.7,137.144252 346.7,150.62 L346.7,150.62 C346.7,164.095748 335.775748,175.02 322.3,175.02 L251.23,175.02 L251.23,150.62 C251.23,137.144252 262.154252,126.22 275.63,126.22 L275.63,126.22 Z" id="Path" stroke="#FFFFFF" opacity="0.75"></path>
                <path d="M124,285.68 C122.1,292.2 120.46,299.76 124.31,305.36 C128.95,312.11 139.59,312.03 146.31,307.31 C153.03,302.59 156.62,294.73 159.71,287.15 C164.93,274.38 169.52,261.23 171.34,247.56 C172.4,239.56 171.47,229.64 164.22,226.13 C153.05,220.72 143.53,229.34 139.92,238.78 C134,254.21 128.66,269.82 124,285.68 Z" id="Path" fill="#FF735F" fill-rule="nonzero"></path>
                <path d="M157.92,203.24 C155.054729,206.3001 152.477191,209.617426 150.22,213.15 C147.07,218.05 144.96,223.29 142.49,228.52 C141.63,230.35 134.37,246.27 135.99,247.43 C145.11,253.96 154.08,261.08 164.54,265.09 C164.89,265.23 162.89,272.89 162.71,273.62 C162,276.46 161.35,279.31 160.78,282.17 C159.63,287.86 158.73,293.64 157.73,299.36 C157.18,302.55 156.63,305.75 156.1,308.94 C155.86,310.37 201.31,313.4 205.42,313.46 C217.42,313.64 236.33,317.01 243.63,304.74 C245.234715,301.751105 246.371275,298.533662 247,295.2 C251.472886,275.863859 253.488799,256.04072 253,236.2 C253.016825,231.542449 252.517104,226.897395 251.51,222.35 C249.86,215.78 246.42,209.88 242.81,204.22 C239.52,199.05 234.34,196.22 228.81,193.56 C212.26,185.65 192.35,183.1 175.56,190.5 C168.883128,193.517266 162.88348,197.850345 157.92,203.24 Z" id="Path" fill="#F5BA00" fill-rule="nonzero"></path>
                <path d="M233.45,250 C232.99,251.05 232.54,252.1 232.09,253.15 C230.34,257.15 225.96,264.15 225.96,268.58 C223.96,274.99 222.96,281.85 224.12,288.47 C224.648464,291.113782 225.373818,293.714361 226.29,296.25 C227.244951,299.51295 228.709694,302.604434 230.63,305.41 C232.46,307.85 236.84,311.71 240.23,310.41 C243.62,309.11 246.4,302.62 247.75,299.41 C255.75,280.58 258.94,259.89 260.89,239.63 C261.602918,236.056594 260.410388,232.369215 257.74,229.89 C255.99,227.7 253.95,225.41 251.19,224.89 C248.43,224.37 245.84,225.79 244.02,227.77 C242.304792,229.863363 240.952715,232.229498 240.02,234.77 L233.45,250 Z" id="Path" fill="#FF735F" fill-rule="nonzero"></path>
                <path d="M248,247.88 C246.45,247.45 224.9,242.21 224.85,244.88 C225.01,233.173333 225.656667,221.486667 226.79,209.82 C226.989683,206.089292 227.730769,202.407441 228.99,198.89 C230.4,195.44 232.94,192.28 236.43,190.95 C239.059232,190.075941 241.883561,189.97185 244.57,190.65 C253.206216,192.651672 260.021744,199.274672 262.27,207.85 C263.033512,211.494237 263.32923,215.220956 263.15,218.94 C263.05,229.94 262.23,240.94 261.58,251.94 C256.93,251.86 252.4,249.12 248,247.88 Z" id="Path" fill="#F5BA00" fill-rule="nonzero"></path>
                <path d="M258.92,188.52 C259.217854,189.516489 259.405641,190.54261 259.48,191.58 C259.93,198.58 255.32,204.47 250.68,209.21 C248.87,211.07 246.31,212.35 244.68,214.29 C242.81,216.49 242.89,220.13 239.68,221.12 C238.179843,221.489584 236.600971,220.962172 235.624124,219.765161 C234.647278,218.56815 234.44714,216.915593 235.11,215.52 C235.709527,213.457252 236.530996,211.465607 237.56,209.58 C238.46,208.23 240.28,207.34 241.63,206.58 C244.452625,204.853201 246.39199,201.991544 246.95,198.73 C247.8,192.82 246.95,186.15 249,180.51 C249.307008,179.511913 249.860746,178.607359 250.61,177.88 C251.37777,177.144994 252.477139,176.871102 253.5,177.16 C254.94,177.66 255.5,179.35 256.01,180.79 C256.86,183.36 258.18,185.88 258.92,188.52 Z" id="Path" fill="#DB6352" fill-rule="nonzero"></path>
                <path d="M251.22,262.78 C251.89,275.41 251.74,288.28 248.3,300.54 C247.3,304.2 245.58,309.44 242.04,311.49 C238.04,313.79 231.76,311.93 228.04,309.81 C225.524228,308.495712 223.349898,306.612434 221.69,304.31 C219.24,300.58 219.11,295.82 219.4,291.36 C220.16,279.36 223.13,268.23 225.4,256.56 C227.92,243.853333 230.873333,231.233333 234.26,218.7 C235.7,213.35 237.56,209.37 242.03,206 C245.22,203.6 250.57,200.42 250.87,206.67 C251.81,225.33 250.22,244 251.22,262.78 Z" id="Path" fill="#DB6352" fill-rule="nonzero"></path>
                <path d="M200.75,198.79 C200.347354,199.443773 200.047208,200.155355 199.86,200.9 C199.694947,201.87305 199.694947,202.86695 199.86,203.84 C200.77,211.15 202.3,218.37 210.13,220.66 C215.598684,222.214608 221.454721,221.620777 226.5,219 C228.054441,218.196218 229.480159,217.164847 230.73,215.94 C231.983422,214.693555 232.740515,213.033637 232.86,211.27 C238.12,212.43 243.56,207.07 246.29,203.27 C252.57,194.46 254.65,183.4 253.69,172.75 C253.46,170.14 253.06,167.4 251.48,165.3 C250.291351,163.8984 248.862323,162.71996 247.26,161.82 C240.06,157.22 232.39,156.97 224.53,160.6 C217.39,163.9 212.43,170.96 209.08,177.82 C207.67,180.69 207.43,184.47 206.3,187.55 C204.976182,191.155367 203.301477,194.622005 201.3,197.9 L200.75,198.79 Z" id="Path" fill="#FF735F" fill-rule="nonzero"></path>
                <path d="M210.69,161.77 C212.173415,158.210157 214.570977,155.105401 217.64,152.77 C223.04,149.02 230.86,149.72 236.95,151.08 C240.45,151.87 243.95,153.39 247.6,153.35 C250.88,153.35 254.28,150.04 257.47,151.14 C258.897758,151.656501 259.966749,152.860999 260.31,154.34 C260.85,156.73 259.36,159.04 258.21,161.21 C257.403922,162.974998 256.454054,164.670713 255.37,166.28 C253.795245,168.415398 251.448318,169.850827 248.83,170.28 C247.963016,170.348501 247.091133,170.321674 246.23,170.2 C241.06,169.66 236.72,168.2 232.77,172.3 C230.08,175.08 228.77,178.89 226.77,182.15 C226.336227,182.974672 225.712362,183.684232 224.95,184.22 C223.821599,184.707298 222.623674,185.014371 221.4,185.13 C216.27,186.32 212.89,194.91 207.47,193.06 C202.83,191.48 203.89,187.26 205.72,183.92 C208.01,179.76 207.57,174.71 208.26,170.02 C208.688886,167.171809 209.50651,164.395926 210.69,161.77 Z" id="Path" fill="#19034D" fill-rule="nonzero"></path>
                <path d="M212,181.64 C210.85078,183.257054 210.094113,185.119621 209.79,187.08 C209.38178,188.72167 209.38178,190.43833 209.79,192.08 C210.242039,193.759468 211.58459,195.052009 213.28,195.44 C214.624554,195.593875 215.969124,195.151774 216.96,194.23 C219.35,192.14 222.16,185.72 221.47,182.44 C220.48,177.8 214.33,178.61 212,181.64 Z" id="Path" fill="#FF735F" fill-rule="nonzero"></path>
                <path d="M216.7,183.36 C215.370789,183.886401 214.308164,184.923811 213.75,186.24 C213.207961,187.546546 212.838192,188.918054 212.65,190.32" id="Path" stroke="#19034D"></path>
                <path d="M250.65,184.33 C250.793585,184.961901 250.400731,185.59136 249.77,185.74 C249.140468,185.883166 248.513948,185.489354 248.37,184.86 C248.298176,184.558876 248.349694,184.241536 248.513091,183.978599 C248.676487,183.715662 248.938204,183.528945 249.24,183.46 C249.542374,183.387965 249.860985,183.439214 250.125518,183.602436 C250.390051,183.765659 250.57876,184.027437 250.65,184.33 Z" id="Path" fill="#19034D" fill-rule="nonzero"></path>
                <path d="M237.52,185.35 C237.571475,185.662368 237.494169,185.982262 237.305731,186.236653 C237.117294,186.491043 236.833811,186.658214 236.52,186.7 C235.882111,186.807695 235.277696,186.377889 235.17,185.74 C235.062305,185.102111 235.492111,184.497696 236.13,184.39 C236.442707,184.322961 236.769219,184.387999 237.032371,184.569744 C237.295523,184.751489 237.471965,185.033815 237.52,185.35 L237.52,185.35 Z" id="Path" fill="#19034D" fill-rule="nonzero"></path>
                <path d="M220.53,281.54 C220.02,284.79 219.62,288.07 219.41,291.36 C219.12,295.82 219.25,300.58 221.7,304.31 C223.359898,306.612434 225.534228,308.495712 228.05,309.81 C231.76,311.93 238.05,313.81 242.05,311.49 C245.59,309.44 247.29,304.2 248.31,300.54 C249.989958,294.332894 250.995771,287.962747 251.31,281.54 L220.53,281.54 Z" id="Path" fill="url(#linearGradient-2)" fill-rule="nonzero"></path>
                <path d="M184.61,262.13 L179.15,246.55 C179.28,246.93 178.15,248.67 177.98,249.08 C177.57,249.98 177.16,250.88 176.76,251.78 C175.92,253.63 175.08,255.48 174.22,257.32 C172.678733,260.869933 170.935893,264.328904 169,267.68 C167.411099,267.153359 165.925705,266.354832 164.61,265.32 C164.07,268.48 163.08,271.44 162.45,274.58 C162.12,276.21 161.82,277.84 161.52,279.48 C161.37,280.3 161.21,281.13 161.05,281.96 C160.99,282.3 160.87,284.07 160.6,284.22 C169.14156,279.230962 176.935275,273.059956 183.75,265.89 C184.355066,265.366688 184.781588,264.667471 184.97,263.89 C184.988593,263.283312 184.865323,262.680659 184.61,262.13 L184.61,262.13 Z" id="Path" fill="url(#linearGradient-3)" fill-rule="nonzero"></path>
                <path d="M251.47,178 C249.861699,177.776689 248.22752,178.154081 246.88,179.06 C246.213157,179.444455 245.962922,180.282961 246.31,180.97 C246.687556,181.645512 247.533981,181.89811 248.22,181.54 C249.127555,180.896336 250.251334,180.63424 251.35,180.81 C252.08868,180.787854 252.684931,180.199131 252.716462,179.460792 C252.747992,178.722453 252.204102,178.085041 251.47,178 L251.47,178 Z" id="Path" fill="#19034D" fill-rule="nonzero"></path>
                <path d="M240.11,180.17 C238.11,179.27 236.05,179.66 234.05,180.17 C232.52,180.59 232.89,183.07 234.45,182.64 C236.01,182.21 237.64,181.74 239.18,182.45 C240.72,183.16 241.56,180.84 240.11,180.17 Z" id="Path" fill="#19034D" fill-rule="nonzero"></path>
                <path d="M222.47,206.88 C222.36,209.49 222.26,212.11 222.18,214.72 C222.18,216.08 222.11,217.45 222.09,218.81 C222.09,219.06 222.02,219.52 222,220 C223.61605,219.70161 225.199907,219.249557 226.73,218.65 C228.950408,217.818056 230.810754,216.237115 231.99,214.18 C232.376475,213.330892 232.681185,212.446899 232.9,211.54 C229.31,210.81 225.18,209.44 222.47,206.88 Z" id="Path" fill="url(#linearGradient-4)" fill-rule="nonzero"></path>
                <path d="M195,312.84 C208.54,314.45 223.47,316.21 236.49,312.37 C234.483362,309.281108 232.157217,306.411974 229.55,303.81 C226.92266,301.192501 223.540663,299.46478 219.88,298.87 C217.947067,298.686849 215.998887,298.74395 214.08,299.04 C210.71,299.45 206.34,301.21 203.02,300.93 C200.19,300.7 196.51,298.28 193.84,297.22 C175.71,290.05 154.2,280.28 134.38,285.49 C124.38,288.13 118.38,296.49 125.24,305.92 C129.1,311.19 135.34,310.21 141.42,310.31 C157.84,310.58 174.32,310.45 190.66,312.31 L195,312.84 Z" id="Path" fill="#FF735F" fill-rule="nonzero"></path>
                <path d="M235.87,200.78 L234.87,200.53 C235.270932,198.72547 236.040345,197.023227 237.13,195.53 C238.270408,193.978531 239.984737,192.948493 241.89,192.67 C242.466128,192.592985 243.051993,192.637266 243.61,192.8 C244.744069,193.218157 245.658031,194.081544 246.14,195.19 L245.23,195.61 C244.873816,194.757605 244.183325,194.088805 243.32,193.76 C242.89132,193.637576 242.442231,193.603554 242,193.66 C240.360687,193.908106 238.890208,194.805531 237.92,196.15 C236.919087,197.532236 236.220588,199.109823 235.87,200.78 Z" id="Path" fill="#19034D" fill-rule="nonzero"></path>
                <path d="M161,279.54 C160.86,279.31 160.73,279.08 160.6,278.85 C159.66,277.296667 158.766667,275.72 157.92,274.12 C156.710676,275.390412 155.388591,276.548491 153.97,277.58 C152.098903,278.905179 150.363755,280.412547 148.79,282.08 C147.79,283.08 146.88,284.14 145.95,285.2 C146.2,285.77 146.43,286.34 146.67,286.93 C146.79,287.21 146.92,287.49 147.04,287.78 C147.67,287.57 148.3,287.37 148.94,287.18 C152.16,286.25 156.4,284.97 159.94,285.48 C160.13,283.48 160.89,281.67 161.04,279.72 C161.03058,279.659197 161.017219,279.59907 161,279.54 Z" id="Path" fill="url(#linearGradient-5)" fill-rule="nonzero"></path>
                <path d="M239.85,204.77 C239.175129,204.781293 238.548147,205.120909 238.17,205.68 C238.02855,205.932182 238.064835,206.246658 238.26,206.46 C238.289977,206.665505 238.446249,206.829791 238.65,206.87 C239.336933,207.015164 240.042795,206.725681 240.43,206.14 C240.663924,205.909814 240.733535,205.560108 240.605588,205.25789 C240.477642,204.955671 240.178095,204.762251 239.85,204.77 Z" id="Path" fill="#DB6352" fill-rule="nonzero"></path>
                <path d="M240.87,177.22 C240.153614,176.92633 239.399621,176.734466 238.63,176.65 C237.99,176.58 237.99,177.58 238.63,177.65 C239.318049,177.73291 239.991188,177.911292 240.63,178.18 C241.2,178.43 241.46,177.46 240.87,177.22 Z" id="Path" fill="#DB6352" fill-rule="nonzero"></path>
                <path d="M247.08,175.77 L245.51,176.26 C244.9,176.45 245.16,177.41 245.78,177.26 L247.35,176.77 C248,176.54 247.7,175.58 247.08,175.77 Z" id="Path" fill="#DB6352" fill-rule="nonzero"></path>
                <path d="M132.49,36.38 L237.18,36.38 C253.997071,36.38 267.63,50.0129294 267.63,66.83 L267.63,107.660026 L132.49,107.660026 C124.40723,107.670618 116.651873,104.46719 110.932736,98.755556 C105.213599,93.043922 102,85.2927773 102,77.21 L102,66.83 C102,50.0129294 115.632929,36.38 132.45,36.38 L132.49,36.38 Z" id="Path" fill="#8054F6" fill-rule="nonzero"></path>
                <path d="M162.37,78.75 L159.32,78.75 L159.32,84.12 L151.92,84.12 L151.92,78.75 L140.92,78.75 L140.92,73.25 L152.4,56.4 L159.32,56.4 L159.32,73.16 L162.37,73.16 L162.37,78.75 Z M151.92,73.16 L151.92,69.93 C151.92,69.33 151.92,68.51 151.99,67.48 C151.991263,66.9381777 152.028008,66.3970197 152.1,65.86 L151.89,65.86 C151.471726,66.8049559 150.983711,67.7174756 150.43,68.59 L147.35,73.16 L151.92,73.16 Z" id="Shape" fill="#FFFFFF" fill-rule="nonzero"></path>
                <path d="M192.110039,70.29 C192.110039,75.1966667 191.29,78.79 189.65,81.07 C188,83.35 185.49,84.5 182.1,84.5 C179.153775,84.6743094 176.324765,83.3221254 174.61,80.92 C172.93,78.54 172.09,74.9966667 172.09,70.29 C172.09,65.3566667 172.913333,61.7433333 174.56,59.45 C176.206667,57.1566667 178.72,56.0066667 182.1,56 C185.045029,55.8295304 187.870718,57.18571 189.58,59.59 C191.273333,61.99 192.116667,65.5566667 192.110039,70.29 Z M179.54,70.29 C179.439239,72.4635137 179.637764,74.6405617 180.13,76.76 C180.52,77.94 181.18,78.52 182.13,78.52 C183.08,78.52 183.73,77.92 184.13,76.7 C184.611706,74.5992964 184.806811,72.44305 184.71,70.29 C184.803479,68.1232699 184.605033,65.953812 184.12,63.84 C183.73,62.61 183.12,61.99 182.12,61.99 C181.12,61.99 180.54,62.58 180.12,63.77 C179.631416,65.9069002 179.436287,68.1004108 179.54,70.29 L179.54,70.29 Z" id="Shape" fill="#FFFFFF" fill-rule="nonzero"></path>
                <path d="M223.41,78.75 L220.36,78.75 L220.36,84.12 L213,84.12 L213,78.75 L202,78.75 L202,73.25 L213.52,56.4 L220.45,56.4 L220.45,73.16 L223.5,73.16 L223.41,78.75 Z M213,73.16 L213,69.93 C213,69.33 213,68.51 213.07,67.48 C213.14,66.45 213.15,65.91 213.17,65.86 L212.96,65.86 C212.545701,66.8068904 212.057528,67.7197084 211.5,68.59 L208.43,73.16 L213,73.16 Z" id="Shape" fill="#FFFFFF" fill-rule="nonzero"></path>
                <path d="M92.6999913,124.63 L167.699991,124.63 C180.402549,124.63 190.699991,134.927451 190.699991,147.63 L190.699991,178.5 L92.6999913,178.5 C79.9974508,178.5 69.6999913,168.202549 69.6999913,155.5 L69.6999913,147.65 C69.6946927,141.546556 72.1155568,135.691277 76.4294689,131.373614 C80.743381,127.05595 86.5965539,124.63 92.6999913,124.63 L92.6999913,124.63 Z" id="Path" fill="#FFFFFF" fill-rule="nonzero"></path>
                <path d="M107.79,157.46 C106.361387,157.548409 104.957924,157.05413 103.9,156.09 C102.913159,155.040109 102.406183,153.627819 102.5,152.19 C102.409847,150.741655 102.870658,149.312783 103.79,148.19 C104.72538,147.221343 106.035428,146.706812 107.38,146.78 C108.636568,146.701777 109.868822,147.151187 110.78,148.02 C111.635477,148.954294 112.075664,150.195476 112,151.46 L112,152.83 L105.35,152.83 C105.337502,153.521423 105.591765,154.191101 106.06,154.7 C106.559318,155.174078 107.23265,155.420243 107.92,155.38 C108.515701,155.381141 109.109573,155.314037 109.69,155.18 C110.287274,155.040664 110.867424,154.836102 111.42,154.57 L111.42,156.74 C110.919533,156.991359 110.388371,157.176257 109.84,157.29 C109.164394,157.417482 108.477376,157.474455 107.79,157.46 L107.79,157.46 Z M107.4,148.77 C106.868638,148.740962 106.351905,148.949854 105.99,149.34 C105.623937,149.797757 105.419964,150.363959 105.41,150.95 L109.41,150.95 C109.440943,150.364237 109.247885,149.78864 108.87,149.34 C108.489541,148.940261 107.950489,148.731241 107.4,148.77 Z" id="Shape" fill="#FF735F" fill-rule="nonzero"></path>
                <path d="M121.94,146.77 C122.258662,146.761037 122.577324,146.787872 122.89,146.85 L122.68,149.49 C122.408278,149.424876 122.129366,149.394633 121.85,149.4 C121.087692,149.35433 120.336663,149.601097 119.75,150.09 C119.239288,150.59073 118.966451,151.285555 119,152 L119,157.25 L116.18,157.25 L116.18,147 L118.32,147 L118.73,148.73 L118.87,148.73 C119.18018,148.165175 119.62717,147.687239 120.17,147.34 C120.688349,146.97451 121.305779,146.775677 121.94,146.77 Z" id="Path" fill="#FF735F" fill-rule="nonzero"></path>
                <path d="M132.42,146.77 C132.755321,146.757188 133.090981,146.784041 133.42,146.85 L133.21,149.49 C132.938186,149.425404 132.659342,149.395168 132.38,149.4 C131.617692,149.35433 130.866663,149.601097 130.28,150.09 C129.754132,150.593726 129.476227,151.303116 129.52,152.03 L129.52,157.28 L126.71,157.28 L126.71,147 L128.84,147 L129.26,148.73 L129.39,148.73 C129.703237,148.167397 130.149591,147.690141 130.69,147.34 C131.198486,146.984847 131.799989,146.786665 132.42,146.77 L132.42,146.77 Z" id="Path" fill="#FF735F" fill-rule="nonzero"></path>
                <path d="M146.51,152.1 C146.596155,153.536351 146.119053,154.949721 145.18,156.04 C144.20876,157.024157 142.860291,157.541678 141.48,157.46 C140.564246,157.481604 139.659464,157.257135 138.86,156.81 C138.099869,156.379394 137.48932,155.72698 137.11,154.94 C136.693412,154.052355 136.488047,153.080294 136.51,152.1 C136.419459,150.667829 136.893279,149.257136 137.83,148.17 C138.808546,147.192691 140.159753,146.682802 141.54,146.77 C142.454318,146.750141 143.357809,146.970841 144.16,147.41 C144.914919,147.839559 145.521666,148.488151 145.9,149.27 C146.325628,150.151355 146.534755,151.121567 146.51,152.1 Z M139.38,152.1 C139.326811,152.904847 139.500014,153.70851 139.88,154.42 C140.245834,154.956925 140.872625,155.255033 141.52,155.2 C142.161683,155.25405 142.782094,154.955334 143.14,154.42 C143.513536,153.706428 143.683083,152.903676 143.63,152.1 C143.685954,151.301348 143.512475,150.503341 143.13,149.8 C142.727196,149.31925 142.132193,149.041534 141.505,149.041534 C140.877807,149.041534 140.282804,149.31925 139.88,149.8 C139.496466,150.502947 139.322919,151.301267 139.38,152.1 Z" id="Shape" fill="#FF735F" fill-rule="nonzero"></path>
                <path d="M156.49,146.77 C156.808662,146.761037 157.127324,146.787872 157.44,146.85 L157.23,149.49 C156.958186,149.425404 156.679342,149.395168 156.4,149.4 C155.637692,149.35433 154.886663,149.601097 154.3,150.09 C153.774132,150.593726 153.496227,151.303116 153.54,152.03 L153.54,157.28 L150.73,157.28 L150.73,147 L152.86,147 L153.28,148.73 L153.41,148.73 C153.723237,148.167397 154.169591,147.690141 154.71,147.34 C155.232564,146.975428 155.852865,146.776792 156.49,146.77 L156.49,146.77 Z" id="Path" fill="#FF735F" fill-rule="nonzero"></path>
                <path d="M303.05,288.57 L277.15,191.93 C273.501636,178.34173 261.326124,168.789513 247.26,168.48 L247.26,168.48 C220.55,167.9 205.19,198.63 221.67,219.65 C248.75,254.2 278.67,293 278.67,293 L303.05,288.57 Z" id="Path" fill="url(#linearGradient-6)" fill-rule="nonzero" opacity="0.49"></path>
                <path d="M288.11,114.209997 L340.52,114.209997 C350.947136,114.209997 359.4,122.662864 359.4,133.09 L359.4,139.53 C359.4,149.957136 350.947136,158.41 340.52,158.41 L269.22,158.41 L269.22,133.09 C269.22,128.08098 271.210509,123.277262 274.753359,119.736287 C278.296209,116.195313 283.10098,114.207347 288.11,114.209997 Z" id="Path" fill="#3B1C99" fill-rule="nonzero"></path>
                <circle id="Oval" fill="#FFFFFF" fill-rule="nonzero" cx="300.96" cy="136.31" r="2.32"></circle>
                <path d="M316.640022,136.31 C316.640022,137.253305 316.071217,138.103534 315.199327,138.463579 C314.327438,138.823625 313.324483,138.622441 312.658902,137.95399 C311.99332,137.28554 311.796451,136.28173 312.160244,135.411397 C312.524037,134.541064 313.376704,133.975951 314.32,133.979978 C314.937039,133.979978 315.52866,134.225794 315.964033,134.663044 C316.399406,135.100294 316.64266,135.692967 316.640022,136.31 L316.640022,136.31 Z" id="Path" fill="#FFFFFF" fill-rule="nonzero"></path>
                <circle id="Oval" fill="#FFFFFF" fill-rule="nonzero" cx="327.68" cy="136.31" r="2.32"></circle>
                <path d="M134.8,299.890113 C133.510398,299.894464 132.223715,299.767136 130.96,299.51 L131.4,297.42 C135.77,298.33 142.91,297.42 144.93,293.22 C145.564252,291.916386 145.564252,290.393614 144.93,289.09 C144.304668,287.820963 143.170998,286.876238 141.81,286.49 C139.1,285.66 135.57,286.6 133.28,287.89 L132.2,286 C134.69,284.6 138.86,283.34 142.41,284.42 C144.328571,284.978558 145.927017,286.312408 146.82,288.1 C147.720593,289.998617 147.720593,292.201383 146.82,294.1 C144.82,298.35 139.45,299.890113 134.8,299.890113 Z" id="Path" fill="#BF0A40" fill-rule="nonzero"></path>
                <path d="M103.54,279.24 L138.34,279.24 L138.34,293.4 C138.34,300.960778 132.210778,307.09 124.65,307.09 L117.23,307.09 C109.669222,307.09 103.54,300.960778 103.54,293.4 L103.54,279.24 Z" id="Path" fill="#BF0A40" fill-rule="nonzero"></path>
                <path d="M148,309.23 L94.43,309.23 C93.5447293,309.224501 92.83,308.505288 92.83,307.62 L92.83,307.62 C92.83,306.736344 93.5463444,306.019969 94.43,306.019969 L148,306.019969 C148.426076,306.017337 148.835616,306.184732 149.137841,306.485079 C149.440065,306.785426 149.61,307.193915 149.61,307.62 L149.61,307.62 C149.61,308.046999 149.440375,308.456508 149.138442,308.758442 C148.836508,309.060375 148.426999,309.23 148,309.23 Z" id="Path" fill="#FFFFFF" fill-rule="nonzero"></path>
                <g id="Group" transform="translate(316.000000, 217.000000)">
                    <path d="M34.11,56.29 C34.38,54.37 35.04,52.64 36.56,51.75 C38.72,50.48 41.61,51.54 44.13,51.07 C51.2,49.75 51.13,39.87 51,34.43 C50.91,30.97 50.75,27.52 50.54,24.06 C50.5534361,23.1403901 50.3441474,22.231185 49.93,21.41 C48.9154606,20.0413269 47.1314842,19.487121 45.52,20.04 C42.43,20.92 40.69,24.27 40.14,27.44 C39.59,30.61 39.86,33.91 39.03,37.02 C38.890749,37.6099718 38.6577916,38.1737964 38.34,38.69 C37.9496777,39.2597988 37.4146878,39.7154031 36.79,40.01 C35.8953843,40.4972866 34.8146157,40.4972866 33.92,40.01 C32.92,39.38 33.1,38.59 33.11,37.64 C33.0821162,36.4786121 32.9852791,35.3199053 32.82,34.17 C32.52,31.57 32.26,28.97 32.01,26.36 C31.53,21.24 31.11,16.11 30.58,10.99 C30.4887246,8.61338454 29.917246,6.27984716 28.9,4.13 C23.83,-4.97 16.11,3.02 15.4,9.66 C13.79,24.75 21.65,38.98 20.99,53.96 C21.0056972,54.5944972 20.8863963,55.2250881 20.64,55.81 C19.46,58.17 15.64,57.81 13.93,56.4 C11.19,54.27 12.17,49.65 12.17,46.87 C12.17,44.6 11.44,42.04 9.24,40.98 C6.76,39.77 3.51,41.22 2.09,43.44 C0.26,46.31 0.47,51.22 0.74,54.44 C0.85516517,56.7881219 1.57883613,59.0659624 2.84,61.05 C4.24106148,63.1219428 6.4989869,64.4546695 8.99,64.68 C10.45,64.77 12.12,64.46 13.23,65.34 C14.58,66.41 14.1,68.34 14.15,69.99 C14.25,73.23 17.02,75.99 20.24,77.36 C23.46,78.73 27.09,78.95 30.63,79.16 C33.63,74.34 33.83,68.79 33.99,63.4 C33.8819827,61.0298123 33.9220607,58.6551926 34.11,56.29 Z" id="Path" fill="#228F4E" fill-rule="nonzero"></path>
                    <path d="M24.57,0.55 C28.18,25.55 31.29,51.05 26.85,75.97" id="Path" stroke="#19034D"></path>
                    <path d="M21.11,0.38 C20.11,5.04 19.11,9.74 19.11,14.49 C19.16,23.55 22.97,32.22 24.47,41.18 C26.15,51.18 24.91,61.39 23.67,71.45" id="Path" stroke="#19034D"></path>
                    <path d="M28.93,44.56 C33.29,43.94 38.49,43.31 41.25,39.82 C41.6523014,39.3344211 41.9608722,38.7783155 42.16,38.18 C42.89,35.82 42.53,33.13 42.52,30.7 C42.51,28.27 42.52,24.27 42.52,21.25" id="Path" stroke="#19034D"></path>
                    <path d="M25,61.18 C21.08,61.82 16.75,62.39 13.37,60.47 C11.3839036,59.2685853 9.89389832,57.3954359 9.17,55.19 C8.50711953,53.0554091 8.21290689,50.8234511 8.3,48.59 C8.31189983,46.1639326 8.51923722,43.742767 8.92,41.35" id="Path" stroke="#19034D"></path>
                    <path d="M29,48.56 C33.9584828,47.8244701 38.8254567,46.5675037 43.52,44.81 C44.5180967,44.5045584 45.4412189,43.9936051 46.23,43.31 C46.9360033,42.5127652 47.4280405,41.5493358 47.66,40.51 C48.35,38.25 48.66,22.76 47.88,18.98" id="Path" stroke="#19034D"></path>
                </g>
                <polygon id="Path" fill="#F5BA00" fill-rule="nonzero" points="326.43 287.79 355.75 287.17 352.76 309 330.38 308.99"></polygon>
                <rect id="Rectangle" fill="#FFFFFF" fill-rule="nonzero" x="192.72" y="304.59" width="128.74" height="5.85" rx="2.5"></rect>
                <path d="M321.87,310.44 L211.87,310.44 L221.44,247.22 C221.758306,245.04734 223.604436,243.425625 225.8,243.39 L327.1,243.39 C328.352985,243.404835 329.53685,243.966757 330.34056,244.928132 C331.14427,245.889507 331.487473,247.154222 331.28,248.39 L321.87,310.44 Z" id="Path" fill="#FFFFFF" fill-rule="nonzero"></path>
                <circle id="Oval" stroke="#8054F6" stroke-width="2" cx="276.9" cy="272.4" r="5.27"></circle>
                <path d="M282.34,238.5 C281.672276,235.604218 281.336778,232.641767 281.339977,229.67 C281.339977,226.77 281.79,224.67 283.7,222.48 C285.13413,220.814119 286.702743,219.268918 288.39,217.86 C292.810757,214.187221 294.399512,208.105706 292.34,202.74" id="Path" stroke="#FFFFFF" stroke-width="2"></path>
                <path d="M291.57,230 C290.99,227.51 292.36,225 294.1,223.1 C295.84,221.2 297.98,219.74 299.49,217.68 C302.73,213.28 302.57,209.13 301.98,200.96 C301.56,195.2 301.67,188.68 305.82,184.68" id="Path" stroke="#FFFFFF" stroke-width="2"></path>
                <rect id="Rectangle" fill="#8054F6" fill-rule="nonzero" x="35.89" y="308.27" width="325.37" height="7.02" rx="3"></rect>
                <path d="M391,126.7 C393.47,142.37 394.48,159.2 387.3,173.35 C383.3,181.24 376.99,187.78 373.41,195.91 C369.59,204.58 368.24,213.58 367.29,222.98" id="Path" stroke="#ADDFFF" stroke-width="2"></path>
                <path d="M67.29,100.46 C57.29,112.52 42.46,119.36 30.46,129.46 C10.8821356,146.134767 -0.26225194,170.655352 0.05,196.37" id="Path" stroke="#ADDFFF" stroke-width="2"></path>
                <path d="M286.26,0.35 C302.728904,5.67272035 316.223254,17.6370823 323.48,33.35" id="Path" stroke="#ADDFFF" stroke-width="2"></path>
                <path d="M58.69,334.79 C80.9702476,354.238319 109.020449,365.832215 138.53,367.79" id="Path" stroke="#ADDFFF" stroke-width="2"></path>
                <path d="M278.11,340.58 C283.471175,338.185615 288.704841,335.515377 293.79,332.58" id="Path" stroke="#69A4C9" stroke-width="2"></path>
                <path d="M205.13,355.29 C226.4,354.36 244.86,353.29 267.79,344.29" id="Path" stroke="#69A4C9" stroke-width="2"></path>
            </g>
        </g>
    </g>
</svg>